<svg width="5.5cm" height=".744cm" version="1.1" viewBox="0 0 55 7.44" xmlns="http://www.w3.org/2000/svg">
 <g transform="translate(0 -289.56)">
  <path d="m4.3942 289.58v5e-3h-0.00356v3.3917l-2.9398-3.3919h-1.449l3.2653 3.6646-3.2653 3.7486h1.4593l2.9295-3.4334v3.4334h1.1973v-5e-3h0.00309v-3.434l2.9295 3.434h1.4598l-3.2658-3.7486 3.2658-3.6646h-1.449l-2.9403 3.3912v-3.3912z" fill="#fab400"/>
  <g fill="#acacac" stroke-width=".26458" aria-label="KATI KNEVELS">
   <path d="m13.309 295.26v-4.0019h0.508v2.2126l2.0658-2.2182h0.54751l-1.6087 1.7667 1.699 2.2408h-0.55315l-1.4563-1.9473-0.69426 0.72248v1.2248z"/>
   <path d="m18.21 291.26h0.42897l1.6369 4.0075h-0.54186l-0.47413-1.174h-1.682l-0.46848 1.174h-0.54186zm0.93697 2.4384-0.72248-1.8514-0.74506 1.8514z"/>
   <path d="m23.331 291.71h-1.3829v3.556h-0.508v-3.556h-1.3829v-0.45155h3.2738z"/>
   <path d="m23.903 295.26v-4.0075h0.508v4.0075z"/>
   <path d="m26.802 295.26v-4.0019h0.508v2.2126l2.0659-2.2182h0.54751l-1.6087 1.7667 1.699 2.2408h-0.55315l-1.4563-1.9473-0.69426 0.72248v1.2248z"/>
   <path d="m30.992 292.2v3.0593h-0.508v-4.0075h0.39511l2.4835 3.1214v-3.1157h0.508v4.0019h-0.42897z"/>
   <path d="m37.549 294.81v0.45156h-2.7206v-4.0075h2.6698v0.45155h-2.1618v1.2982h1.8796v0.42333h-1.8796v1.3829z"/>
   <path d="m38.358 291.26 1.3264 3.3697 1.3208-3.3697h0.53622l-1.6369 4.0075h-0.44026l-1.6425-4.0075z"/>
   <path d="m44.803 294.81v0.45156h-2.7206v-4.0075h2.6698v0.45155h-2.1618v1.2982h1.8796v0.42333h-1.8796v1.3829z"/>
   <path d="m45.499 295.26v-4.0075h0.508v3.556h2.2352v0.45156z"/>
   <path d="m51.149 292.1q-0.06773-0.079-0.18062-0.1524-0.11289-0.0734-0.254-0.12982-0.14111-0.0621-0.31044-0.096-0.16369-0.0395-0.34431-0.0395-0.46849 0-0.68862 0.17498-0.21449 0.17498-0.21449 0.47977 0 0.16369 0.06209 0.27093 0.06209 0.10725 0.19191 0.18627 0.13546 0.0734 0.33302 0.12982 0.19755 0.0564 0.46848 0.11853 0.31044 0.0677 0.5588 0.15805 0.254 0.0847 0.42897 0.21448 0.18062 0.12982 0.27093 0.31609 0.09595 0.18626 0.09595 0.4572 0 0.28786-0.11289 0.50235-0.11289 0.20884-0.31044 0.34995-0.19191 0.13547-0.4572 0.2032-0.26529 0.0621-0.57573 0.0621-0.46284 0-0.88053-0.14111-0.41204-0.14676-0.75071-0.42333l0.24271-0.42898q0.09031 0.096 0.23142 0.19191 0.14676 0.096 0.32738 0.17498 0.18627 0.0734 0.39511 0.12418 0.21449 0.0452 0.44591 0.0452 0.42897 0 0.66604-0.1524t0.23706-0.45719q0-0.16934-0.07902-0.28222-0.07338-0.11854-0.22013-0.2032-0.14676-0.0847-0.36689-0.14676-0.21449-0.0677-0.49106-0.13546-0.3048-0.0734-0.53622-0.15805-0.23142-0.0847-0.38946-0.20319-0.1524-0.11854-0.23142-0.28787-0.07902-0.16933-0.07902-0.4064 0-0.28786 0.10724-0.50799t0.29915-0.37253q0.19191-0.1524 0.4572-0.22578 0.26529-0.079 0.57573-0.079 0.4064 0 0.73377 0.12418 0.32738 0.12417 0.58137 0.33302z"/>
  </g>
 </g>
</svg>
